<?xml version="1.0" standalone="no"?>
<!DOCTYPE svg PUBLIC "-//W3C//DTD SVG 20010904//EN"
 "http://www.w3.org/TR/2001/REC-SVG-20010904/DTD/svg10.dtd">
<svg version="1.0" xmlns="http://www.w3.org/2000/svg"
 width="200.000000pt" height="200.000000pt" viewBox="0 0 200.000000 200.000000"
 preserveAspectRatio="xMidYMid meet">
<metadata>
Created by potrace 1.14, written by Peter Selinger 2001-2017
</metadata>
<g transform="translate(0.000000,200.000000) scale(0.100000,-0.100000)"
fill="#000000" stroke="none">
<path d="M948 1985 c-34 -12 -87 -42 -98 -55 -27 -32 -73 -50 -124 -50 -80 0
-147 -17 -201 -51 -60 -38 -59 -66 2 -86 26 -9 61 -33 90 -64 39 -41 47 -56
48 -89 1 -22 -1 -40 -4 -40 -7 0 -83 52 -100 69 -18 16 -76 8 -102 -15 -25
-22 -20 -78 10 -103 l22 -19 -35 -17 c-39 -19 -49 -36 -40 -71 4 -17 15 -27
34 -31 l28 -5 -19 -42 c-10 -22 -19 -48 -19 -56 0 -9 -18 -33 -39 -54 -22 -22
-49 -60 -60 -87 -14 -30 -27 -48 -39 -48 -17 -1 -138 1 -157 2 -6 0 -36 -17
-69 -38 -46 -31 -55 -41 -44 -49 8 -6 14 -21 13 -33 -1 -13 2 -23 7 -23 4 0 8
-7 8 -15 0 -8 6 -15 13 -15 6 0 0 -8 -15 -18 -30 -18 -38 -59 -14 -68 8 -3 12
-12 9 -20 -3 -8 0 -14 7 -14 7 0 10 -6 7 -14 -3 -8 -1 -17 6 -20 8 -3 8 -5 -2
-5 -11 -1 -11 -4 -1 -16 7 -8 9 -15 5 -15 -4 0 -1 -7 6 -16 11 -14 10 -18 -6
-30 -11 -7 -25 -17 -30 -22 -9 -7 -13 -149 -6 -208 6 -62 228 -58 232 4 3 35
7 77 8 90 0 6 8 12 16 12 17 0 19 -18 6 -39 -5 -8 -7 -20 -4 -27 7 -20 63 -51
104 -58 20 -4 44 -15 53 -25 10 -11 33 -22 52 -25 25 -5 34 -12 34 -27 0 -11
11 -31 24 -44 l25 -25 -26 -12 c-47 -23 -38 -85 15 -112 27 -13 130 -14 199
-1 30 5 33 4 33 -18 0 -31 28 -56 68 -59 19 -1 34 -9 37 -19 10 -31 54 -44
155 -44 81 0 101 3 118 18 38 34 13 80 -52 99 -22 6 -44 14 -48 17 -4 3 -8 40
-9 81 -2 68 -1 75 17 76 110 8 186 16 219 24 53 13 55 12 55 -4 0 -15 47 -29
94 -28 20 1 30 -5 33 -19 15 -58 194 -67 254 -13 37 33 -21 84 -101 88 -9 1
-16 13 -18 32 -3 29 -1 31 29 32 23 1 33 -4 36 -19 7 -27 42 -39 111 -39 110
0 167 33 142 80 -13 24 -48 34 -112 33 -47 0 -57 8 -40 34 4 6 31 13 60 14 54
3 69 12 75 45 1 10 6 25 10 32 5 7 3 12 -7 12 -12 0 -13 4 -1 27 8 16 15 46
17 68 2 22 6 45 9 50 14 26 1 40 -46 53 -52 15 -69 29 -56 47 4 5 8 19 8 30 1
11 2 25 3 30 7 34 -4 44 -75 69 -42 15 -79 25 -83 23 -32 -20 -246 -12 -248 8
-4 73 -53 221 -94 285 -28 43 -159 181 -192 201 -7 4 -9 11 -6 15 8 8 78 -34
78 -47 0 -5 9 -9 20 -9 12 0 40 -20 64 -45 25 -25 53 -45 64 -45 22 0 57 34
48 49 -4 5 -2 12 2 15 5 3 8 16 7 28 -1 13 -3 29 -4 36 0 6 -12 12 -26 12 -13
0 -42 7 -62 15 -21 8 -57 17 -80 19 -24 2 -48 8 -56 14 -18 15 -68 21 -96 10
-21 -7 -22 -6 -12 6 7 8 15 30 18 48 7 45 14 51 70 50 39 -1 51 -6 66 -26 17
-24 19 -25 37 -8 19 18 35 78 33 125 -1 15 2 27 7 27 4 0 3 10 -3 23 l-11 23
-54 -32 c-30 -18 -68 -36 -85 -40 -33 -7 -106 -62 -107 -79 0 -5 -5 -27 -11
-47 -8 -31 -15 -38 -34 -38 -21 0 -26 6 -31 40 -4 22 -11 43 -15 46 -19 11 -4
31 95 123 30 28 36 41 34 65 -3 31 -3 31 -62 29 -56 -2 -58 -1 -51 20 4 12 9
37 12 55 5 29 3 32 -18 31 -13 0 -40 -6 -61 -14z m-353 -465 c25 -16 27 -20
10 -20 -24 0 -78 39 -55 40 8 0 29 -9 45 -20z m-60 -100 c3 -5 -3 -10 -14 -10
-12 0 -21 5 -21 10 0 6 6 10 14 10 8 0 18 -4 21 -10z"/>
<path d="M264 341 c-39 -10 -121 -70 -127 -94 -18 -63 238 -80 258 -17 3 10
19 23 36 30 22 10 29 18 27 34 -6 44 -105 68 -194 47z"/>
<path d="M1204 221 c-61 -21 -76 -43 -48 -72 17 -16 33 -21 82 -20 100 0 167
24 160 57 -8 43 -115 62 -194 35z"/>
<path d="M340 160 c-48 -8 -60 -17 -60 -44 0 -40 33 -59 114 -64 113 -7 172
20 146 68 -17 32 -123 54 -200 40z"/>
</g>
</svg>
